<svg xmlns="http://www.w3.org/2000/svg" xmlns:xlink="http://www.w3.org/1999/xlink" width="556" height="238" viewBox="0 0 556 238"><defs><style>.a,.c{fill:#fff;}.a{stroke:#707070;}.b{clip-path:url(#a);}</style><clipPath id="a"><rect class="a" width="556" height="238" transform="translate(-51 4938)"/></clipPath></defs><g class="b" transform="translate(51 -4938)"><path class="c" d="M-964.6,1530.016q0-60.369-19.867-106.8-19.832-46.385-54.69-77.761-34.848-31.359-81.447-47.6-46.625-16.245-100.911-16.248-54.307,0-100.893,16.248t-81.038,47.6q-34.466,31.332-54.292,77.761-19.876,46.465-19.856,106.8a298.9,298.9,0,0,0,8.1,70.071c.659,3.483,10.735,35.35,16.663,49.2,5,11.708,10.438,23.9,15.322,35.95,13.963,34.246,12.664,57.775,9.484,78.628-4.611,30.075,271.554,83.571,403.163-61.84,1.43-1.573,2.9-3.092,4.273-4.706,4.534-5.246,8.919-10.724,13.013-16.515l-.2.036a230.528,230.528,0,0,0,23.713-43.634Q-964.566,1590.376-964.6,1530.016Zm-170.472,57.377a123.332,123.332,0,0,1-8.42,20.242l-1.253,2.32c-.944,1.525-1.923,3.1-3,4.754l-1.46,1.976c-29.552,42.418-79.281,48.761-106.275,48.761a160.586,160.586,0,0,1-31.641-3.032,207.5,207.5,0,0,0-8.5-40.293c-1.976-6.326-4.1-12.687-6.183-18.93-3.5-10.492-7.134-21.345-8.5-27.79-.078-.652-.184-1.483-.327-2.314l-.2-1.68-.356-1.934a198.943,198.943,0,0,1-3.27-36.8c0-20.924,2.5-39.065,7.377-53.883,4.777-14.438,10.836-25.921,18.6-35.077a78.322,78.322,0,0,1,28.051-21.28,94.666,94.666,0,0,1,39.124-7.993,94.626,94.626,0,0,1,39.112,7.993,81.168,81.168,0,0,1,28.455,21.482c7.815,9.15,13.9,20.568,18.633,34.875,4.9,14.877,7.382,32.976,7.382,53.883C-1127.727,1553.771-1130.208,1572.184-1135.074,1587.394Z" transform="matrix(0.819, 0.574, -0.574, 0.819, 2094.044, 4649.781)"/></g></svg>