<svg xmlns="http://www.w3.org/2000/svg" width="1440" height="817.778" viewBox="0 0 1440 817.778"><defs><style>.a{fill:#f1e7da;}</style></defs><path class="a" d="M-1676.5,817.778h0c-48.355-9.573-100.619-18.23-155.339-25.731-55.324-7.584-113.853-14.08-173.961-19.309-124.709-10.848-256.159-16.349-390.7-16.349s-265.989,5.5-390.7,16.349c-60.109,5.229-118.638,11.725-173.961,19.309-54.715,7.5-106.979,16.157-155.341,25.73V0c48.356,9.572,100.62,18.229,155.341,25.73,55.314,7.582,113.843,14.079,173.961,19.309,124.715,10.848,256.165,16.349,390.7,16.349s265.983-5.5,390.7-16.349c60.1-5.228,118.626-11.725,173.961-19.309,54.709-7.5,106.973-16.156,155.341-25.73V817.776Z" transform="translate(3116.5)"/></svg>